<?xml version="1.0" encoding="utf-8"?>
<!-- Generator: Adobe Illustrator 21.1.0, SVG Export Plug-In . SVG Version: 6.00 Build 0)  -->
<svg version="1.1" id="Layer_1" xmlns="http://www.w3.org/2000/svg" xmlns:xlink="http://www.w3.org/1999/xlink" x="0px" y="0px"
	 viewBox="0 0 100.5 100.5" style="enable-background:new 0 0 100.5 100.5;" xml:space="preserve">
<path d="M60.6,46.8c4.4-2.9,7.3-7.9,7.3-13.5c0-8.6-6.7-15.7-15.2-16.2V5.6c0-0.8-0.7-1.5-1.5-1.5c-0.8,0-1.5,0.7-1.5,1.5v11.3H44
	V5.6c0-0.8-0.7-1.5-1.5-1.5S41,4.8,41,5.6v11.3H26.1c-0.8,0-1.5,0.7-1.5,1.5s0.7,1.5,1.5,1.5h4.5l-0.1,60.5h-4.2
	c-0.8,0-1.5,0.7-1.5,1.5s0.7,1.5,1.5,1.5H41v10.9c0,0.8,0.7,1.5,1.5,1.5s1.5-0.7,1.5-1.5V83.5h5.7v10.9c0,0.8,0.7,1.5,1.5,1.5
	c0.8,0,1.5-0.7,1.5-1.5V83.5h5c10.2,0,18.4-8.3,18.4-18.4C76.1,55.8,69.4,48.2,60.6,46.8z M51.6,19.9c7.3,0,13.3,6,13.3,13.3
	s-6,13.3-13.3,13.3H33.5l0-26.6C33.5,19.9,51.6,19.9,51.6,19.9z M57.7,80.5H33.4l0-31h18.1c0.3,0,0.6,0,0.9,0c0,0,0,0,0,0l5.1,0
	c8.4,0,15.5,7.1,15.5,15.5C73.1,73.6,66.2,80.5,57.7,80.5z"/>
</svg>
